HIERARCHY
ROOT Hips
{
	OFFSET 0.000000 0.000000 0.000000
	CHANNELS 6 Xposition Yposition Zposition Xrotation Yrotation Zrotation
	JOINT LeftUpLeg_virtual
	{
		OFFSET 0.000000 0.000000 0.000000
		CHANNELS 3 Xrotation Yrotation Zrotation
		JOINT LeftUpLeg
		{
			OFFSET 11.394100 -6.187798 -0.413800
			CHANNELS 3 Xrotation Yrotation Zrotation
			JOINT LeftLeg
			{
				OFFSET 0.430247 -32.302673 3.732800
				CHANNELS 3 Xrotation Yrotation Zrotation
				JOINT LeftFoot
				{
					OFFSET -0.430247 -48.264931 -6.423300
					CHANNELS 3 Xrotation Yrotation Zrotation
					JOINT LeftToeBase
					{
						OFFSET 4.230900 -16.068199 23.438400
						CHANNELS 3 Xrotation Yrotation Zrotation
						JOINT LeftToe_End
						{
							OFFSET 4.510700 0.695400 19.974600
							CHANNELS 3 Xrotation Yrotation Zrotation
							End Site
							{
								OFFSET 0 0 0
							}
						}
					}
				}
			}
		}
	}
	JOINT RightUpLeg_virtual
	{
		OFFSET 0.000000 0.000000 0.000000
		CHANNELS 3 Xrotation Yrotation Zrotation
		JOINT RightUpLeg
		{
			OFFSET -11.333700 -6.187798 -0.413800
			CHANNELS 3 Xrotation Yrotation Zrotation
			JOINT RightLeg
			{
				OFFSET -0.430392 -32.302628 3.733000
				CHANNELS 3 Xrotation Yrotation Zrotation
				JOINT RightFoot
				{
					OFFSET 0.430392 -48.264973 -6.423500
					CHANNELS 3 Xrotation Yrotation Zrotation
					JOINT RightToeBase
					{
						OFFSET -4.230900 -16.068199 23.438400
						CHANNELS 3 Xrotation Yrotation Zrotation
						JOINT RightToe_End
						{
							OFFSET -4.510700 0.695400 19.974600
							CHANNELS 3 Xrotation Yrotation Zrotation
							End Site
							{
								OFFSET 0 0 0
							}
						}
					}
				}
			}
		}
	}
	JOINT Spine_virtual
	{
		OFFSET 0.000000 0.000000 0.000000
		CHANNELS 3 Xrotation Yrotation Zrotation
		JOINT Spine
		{
			OFFSET -0.002400 12.777504 0.315300
			CHANNELS 3 Xrotation Yrotation Zrotation
			JOINT Spine1
			{
				OFFSET -0.002067 5.816869 0.032633
				CHANNELS 3 Xrotation Yrotation Zrotation
				JOINT Spine1_split
				{
					OFFSET -0.002067 5.816869 0.032633
					CHANNELS 3 Xrotation Yrotation Zrotation
					JOINT Spine2
					{
						OFFSET -0.002067 5.816869 0.032633
						CHANNELS 3 Xrotation Yrotation Zrotation
						JOINT Neck_virtual
						{
							OFFSET 0.000000 0.000000 0.000000
							CHANNELS 3 Xrotation Yrotation Zrotation
							JOINT Neck
							{
								OFFSET -0.003700 21.199493 -0.826900
								CHANNELS 3 Xrotation Yrotation Zrotation
								JOINT Head
								{
									OFFSET 0.000000 20.442200 4.834800
									CHANNELS 3 Xrotation Yrotation Zrotation
									JOINT HeadTop_End
									{
										OFFSET 0.000000 34.668396 4.968400
										CHANNELS 3 Xrotation Yrotation Zrotation
										End Site
										{
											OFFSET 0 0 0
										}
									}
								}
							}
						}
						JOINT LeftShoulder_virtual
						{
							OFFSET 0.000000 0.000000 0.000000
							CHANNELS 3 Xrotation Yrotation Zrotation
							JOINT LeftShoulder
							{
								OFFSET 3.288150 8.794197 -1.372250
								CHANNELS 3 Xrotation Yrotation Zrotation
								JOINT LeftShoulder_split
								{
									OFFSET 3.288150 8.794197 -1.372250
									CHANNELS 3 Xrotation Yrotation Zrotation
									JOINT LeftArm
									{
										OFFSET 11.953299 -2.279007 -0.146200
										CHANNELS 3 Xrotation Yrotation Zrotation
										JOINT LeftForeArm
										{
											OFFSET 18.448900 0.000000 0.000000
											CHANNELS 3 Xrotation Yrotation Zrotation
											JOINT LeftHand
											{
												OFFSET 29.527798 0.000000 0.000000
												CHANNELS 3 Xrotation Yrotation Zrotation
												End Site
												{
													OFFSET 0 0 0
												}
											}
										}
									}
								}
							}
						}
						JOINT RightShoulder_virtual
						{
							OFFSET 0.000000 0.000000 0.000000
							CHANNELS 3 Xrotation Yrotation Zrotation
							JOINT RightShoulder
							{
								OFFSET -3.249400 8.794197 -1.372250
								CHANNELS 3 Xrotation Yrotation Zrotation
								JOINT RightShoulder_split
								{
									OFFSET -3.249400 8.794197 -1.372250
									CHANNELS 3 Xrotation Yrotation Zrotation
									JOINT RightArm
									{
										OFFSET -11.953299 -2.279007 -0.146200
										CHANNELS 3 Xrotation Yrotation Zrotation
										JOINT RightForeArm
										{
											OFFSET -18.448900 0.000000 0.000000
											CHANNELS 3 Xrotation Yrotation Zrotation
											JOINT RightHand
											{
												OFFSET -29.527802 0.000000 0.000000
												CHANNELS 3 Xrotation Yrotation Zrotation
												End Site
												{
													OFFSET 0 0 0
												}
											}
										}
									}
								}
							}
						}
					}
				}
			}
		}
	}
}
MOTION
Frames: 4
Frame Time: 0.03333333
11.364119 85.094971 2.064747 0.000000 0.000000 0.000000 9.066672 -1.773740 -10.042202 -60.576463 -9.508819 25.400575 50.855536 -2.701576 -3.272545 3.419247 2.171103 -12.232748 -1.257629 -0.037091 0.746081 0.000000 0.000000 0.000000 9.736584 -1.150245 -10.705644 -43.998282 -22.363120 -1.773497 49.662811 4.606311 -2.954219 -16.619764 -15.349124 -9.178723 0.989195 -0.654690 -2.638921 0.000000 0.000000 0.000000 8.097267 0.268213 -11.124017 7.816873 -3.470474 -7.238880 5.417971 -1.736602 -6.244630 1.280571 0.921497 0.548459 0.000000 0.000000 0.000000 7.803762 -1.778723 -6.341052 -6.919727 0.529264 -6.869456 -29.432221 -12.758698 13.076408 0.000000 0.000000 0.000000 6.734212 -1.513190 -6.057349 0.894923 -5.386619 -7.819171 -0.707142 -4.090301 0.531935 -27.119980 7.930439 -19.359060 2.607963 -59.277456 2.400132 0.000000 0.000000 0.000000 6.489707 -1.869565 -6.054229 1.855698 -1.832301 4.258448 6.327283 3.854797 -3.029295 24.853820 -8.702776 81.201544 8.583550 80.260959 -7.634571 0.000000 0.000000 0.000000 
11.564585 83.926003 1.213306 0.000000 0.000000 0.000000 8.573119 -3.202501 -9.321656 -61.148382 -9.883066 25.220829 52.553460 -1.876195 -3.559009 3.128471 2.616312 -12.457336 -0.793353 0.038070 0.841362 0.000000 0.000000 0.000000 9.133972 -2.331598 -9.987959 -46.019024 -20.666990 -1.457778 51.773298 3.636653 -2.881456 -16.887009 -15.983034 -9.517496 0.878282 -0.628237 -2.571400 0.000000 0.000000 0.000000 7.642692 -1.021611 -10.564467 8.686764 -3.124152 -6.775495 5.980420 -1.478169 -5.950263 1.349055 0.913810 0.619457 0.000000 0.000000 0.000000 8.089568 -1.552749 -6.067079 -5.956720 0.397305 -6.691668 -28.357272 -12.208893 12.764050 0.000000 0.000000 0.000000 7.145997 -1.348620 -5.942648 0.937564 -5.629468 -8.743215 -0.555866 -4.108640 0.705696 -24.243867 12.234243 -22.856480 2.143540 -56.898064 2.064053 0.000000 0.000000 0.000000 7.062368 -1.602665 -5.760064 1.844383 -0.685316 5.067905 5.955823 3.510512 -3.025330 21.855709 -5.638348 79.616599 6.139266 76.307611 -5.310327 0.000000 0.000000 0.000000 
11.600007 83.181511 0.501965 0.000000 0.000000 0.000000 8.153385 -4.361320 -8.722426 -61.339682 -10.113173 25.075248 53.524429 -0.917378 -3.877320 2.861782 3.030508 -12.603199 -0.493302 0.120109 0.747826 0.000000 0.000000 0.000000 8.498548 -3.423505 -9.355685 -47.608433 -19.213980 -1.142664 53.252591 2.715654 -2.722974 -16.864936 -16.415472 -9.676296 1.198152 -0.580292 -2.507367 0.000000 0.000000 0.000000 7.197325 -2.374816 -10.054818 9.378162 -2.858653 -6.427774 6.391985 -1.268080 -5.696427 1.400079 0.972773 0.521045 0.000000 0.000000 0.000000 8.229502 -1.373095 -5.809163 -5.170795 0.382728 -6.560217 -26.759621 -11.552493 12.609378 0.000000 0.000000 0.000000 7.390426 -1.206872 -5.850009 0.975186 -5.810548 -9.605433 -0.636094 -3.797702 0.911890 -21.331594 15.263354 -26.802555 1.579314 -53.528469 1.640263 0.000000 0.000000 0.000000 7.510765 -1.373403 -5.518181 1.771093 0.362483 5.873682 5.562898 3.306966 -2.928291 18.832686 -2.774354 77.815259 4.793013 72.611072 -4.108581 0.000000 0.000000 0.000000 
11.494394 82.876892 -0.060226 0.000000 0.000000 0.000000 7.709232 -5.263269 -8.261623 -61.190586 -10.291741 25.012964 53.920850 -0.009407 -4.169549 2.861483 3.276002 -12.770910 -0.346145 0.201752 0.482600 0.000000 0.000000 0.000000 7.932875 -4.398051 -8.861332 -48.645277 -17.996515 -0.748379 53.956517 1.957719 -2.578621 -16.330632 -16.613838 -9.448480 1.445955 -0.505131 -2.516267 0.000000 0.000000 0.000000 6.736845 -3.775008 -9.592961 9.806668 -2.656043 -6.200201 6.598741 -1.113924 -5.498127 1.353549 1.141611 0.324186 0.000000 0.000000 0.000000 8.166453 -1.231875 -5.601248 -4.532746 0.418432 -6.461425 -24.655525 -10.917992 12.651204 0.000000 0.000000 0.000000 7.430927 -1.092397 -5.784477 1.003459 -5.854661 -10.391231 -0.833707 -3.398907 1.055188 -18.530720 16.925649 -30.809628 1.077128 -49.695258 1.257722 0.000000 0.000000 0.000000 7.763394 -1.177971 -5.354278 1.648783 1.250853 6.697698 5.349433 3.305281 -2.756079 15.836222 -0.144461 76.026993 3.941410 69.221665 -3.397677 0.000000 0.000000 0.000000 
